HIERARCHY
ROOT Hips
{
	OFFSET 0.000000 0.000000 0.000000
	CHANNELS 6 Xposition Yposition Zposition Xrotation Yrotation Zrotation
	JOINT LeftUpLeg_virtual
	{
		OFFSET 0.000000 0.000000 0.000000
		CHANNELS 3 Xrotation Yrotation Zrotation
		JOINT LeftUpLeg
		{
			OFFSET 13.026900 -6.336304 -1.092800
			CHANNELS 3 Xrotation Yrotation Zrotation
			JOINT LeftLeg
			{
				OFFSET 0.524474 -46.096886 9.782700
				CHANNELS 3 Xrotation Yrotation Zrotation
				JOINT LeftFoot
				{
					OFFSET -0.524474 -53.427422 -12.948200
					CHANNELS 3 Xrotation Yrotation Zrotation
					JOINT LeftToeBase
					{
						OFFSET 0.192200 -14.009700 16.364100
						CHANNELS 3 Xrotation Yrotation Zrotation
						JOINT LeftToe_End
						{
							OFFSET -1.784700 -0.561700 9.474800
							CHANNELS 3 Xrotation Yrotation Zrotation
							End Site
							{
								OFFSET 0 0 0
							}
						}
					}
				}
			}
		}
	}
	JOINT RightUpLeg_virtual
	{
		OFFSET 0.000000 0.000000 0.000000
		CHANNELS 3 Xrotation Yrotation Zrotation
		JOINT RightUpLeg
		{
			OFFSET -12.883000 -6.336304 -1.092800
			CHANNELS 3 Xrotation Yrotation Zrotation
			JOINT RightLeg
			{
				OFFSET -0.524587 -46.096825 9.782800
				CHANNELS 3 Xrotation Yrotation Zrotation
				JOINT RightFoot
				{
					OFFSET 0.524587 -53.427383 -12.948300
					CHANNELS 3 Xrotation Yrotation Zrotation
					JOINT RightToeBase
					{
						OFFSET -0.192200 -14.009700 16.364100
						CHANNELS 3 Xrotation Yrotation Zrotation
						JOINT RightToe_End
						{
							OFFSET 1.784700 -0.561700 9.474800
							CHANNELS 3 Xrotation Yrotation Zrotation
							End Site
							{
								OFFSET 0 0 0
							}
						}
					}
				}
			}
		}
	}
	JOINT Spine_virtual
	{
		OFFSET 0.000000 0.000000 0.000000
		CHANNELS 3 Xrotation Yrotation Zrotation
		JOINT Spine
		{
			OFFSET 0.072000 7.257294 -0.789700
			CHANNELS 3 Xrotation Yrotation Zrotation
			JOINT Spine1
			{
				OFFSET 0.000000 12.508769 -0.658067
				CHANNELS 3 Xrotation Yrotation Zrotation
				JOINT Spine1_split
				{
					OFFSET 0.000000 12.508769 -0.658067
					CHANNELS 3 Xrotation Yrotation Zrotation
					JOINT Spine2
					{
						OFFSET 0.000000 12.508769 -0.658067
						CHANNELS 3 Xrotation Yrotation Zrotation
						JOINT Neck_virtual
						{
							OFFSET 0.000000 0.000000 0.000000
							CHANNELS 3 Xrotation Yrotation Zrotation
							JOINT Neck
							{
								OFFSET 0.000000 14.033295 7.520400
								CHANNELS 3 Xrotation Yrotation Zrotation
								JOINT Head
								{
									OFFSET 0.000000 8.198502 5.703100
									CHANNELS 3 Xrotation Yrotation Zrotation
									JOINT HeadTop_End
									{
										OFFSET 0.000000 17.760803 13.332701
										CHANNELS 3 Xrotation Yrotation Zrotation
										End Site
										{
											OFFSET 0 0 0
										}
									}
								}
							}
						}
						JOINT LeftShoulder_virtual
						{
							OFFSET 0.000000 0.000000 0.000000
							CHANNELS 3 Xrotation Yrotation Zrotation
							JOINT LeftShoulder
							{
								OFFSET 6.292450 5.785301 -0.669000
								CHANNELS 3 Xrotation Yrotation Zrotation
								JOINT LeftShoulder_split
								{
									OFFSET 6.292450 5.785301 -0.669000
									CHANNELS 3 Xrotation Yrotation Zrotation
									JOINT LeftArm
									{
										OFFSET 13.907140 -6.093903 1.965100
										CHANNELS 3 Xrotation Yrotation Zrotation
										JOINT LeftForeArm
										{
											OFFSET 34.140198 0.000000 0.000000
											CHANNELS 3 Xrotation Yrotation Zrotation
											JOINT LeftHand
											{
												OFFSET 40.960209 0.000000 0.000000
												CHANNELS 3 Xrotation Yrotation Zrotation
												End Site
												{
													OFFSET 0 0 0
												}
											}
										}
									}
								}
							}
						}
						JOINT RightShoulder_virtual
						{
							OFFSET 0.000000 0.000000 0.000000
							CHANNELS 3 Xrotation Yrotation Zrotation
							JOINT RightShoulder
							{
								OFFSET -6.292450 5.785301 -0.669000
								CHANNELS 3 Xrotation Yrotation Zrotation
								JOINT RightShoulder_split
								{
									OFFSET -6.292450 5.785301 -0.669000
									CHANNELS 3 Xrotation Yrotation Zrotation
									JOINT RightArm
									{
										OFFSET -13.907140 -6.093903 1.965100
										CHANNELS 3 Xrotation Yrotation Zrotation
										JOINT RightForeArm
										{
											OFFSET -34.140198 0.000000 0.000000
											CHANNELS 3 Xrotation Yrotation Zrotation
											JOINT RightHand
											{
												OFFSET -40.960209 0.000000 0.000000
												CHANNELS 3 Xrotation Yrotation Zrotation
												End Site
												{
													OFFSET 0 0 0
												}
											}
										}
									}
								}
							}
						}
					}
				}
			}
		}
	}
}
MOTION
Frames: 12
Frame Time: 0.03333333
-0.843576 117.114708 2.643921 0.000000 0.000000 0.000000 -1.359614 7.478530 -2.651932 -3.944891 11.794632 13.685430 9.375515 -4.036398 -1.062408 -6.081403 0.342904 -6.210495 1.412078 0.135844 -1.723723 0.000000 0.000000 0.000000 -1.316386 8.129373 -2.668359 -6.165606 -4.097888 0.492558 10.046778 4.229493 -0.592371 0.928240 -0.030295 0.320365 -1.508741 0.435917 0.436102 0.000000 0.000000 0.000000 -0.917914 10.821850 -3.068140 9.461726 -0.342342 1.658076 3.122678 0.155608 -0.482133 0.309223 -2.171263 1.113779 0.000000 0.000000 0.000000 -4.303178 -0.053562 0.099281 0.095630 0.287225 0.422164 5.970165 -4.135895 -1.140969 0.000000 0.000000 0.000000 -4.657208 -0.490264 0.191135 0.554886 -3.882314 -8.212427 -0.573175 -1.771654 0.716710 4.669699 1.554265 -72.113465 3.482862 -11.779296 1.338071 0.000000 0.000000 0.000000 -5.452705 -0.813780 0.154665 0.736819 8.186589 5.732375 -2.894542 -1.052929 -0.542602 3.528132 12.908828 76.913729 16.755882 19.274545 -4.902690 0.000000 0.000000 0.000000 
-0.455091 117.145828 2.322540 0.000000 0.000000 0.000000 -1.206197 7.622114 -2.585906 -3.768638 11.708683 13.388526 9.314792 -3.891216 -1.081114 -6.393838 0.400618 -6.290126 1.398104 0.115560 -1.670392 0.000000 0.000000 0.000000 -1.132066 8.099431 -2.657258 -6.375884 -4.323481 0.176819 9.754977 4.293415 -0.604971 0.878656 0.178528 0.048219 -1.425442 0.425246 0.350336 0.000000 0.000000 0.000000 -0.720037 10.349004 -3.018108 9.294393 -0.305540 1.664151 3.086392 0.181506 -0.498740 0.253573 -2.304285 0.930718 0.000000 0.000000 0.000000 -4.192644 -0.015440 0.087480 0.145716 0.368202 0.410807 5.980175 -4.302973 -0.939885 0.000000 0.000000 0.000000 -4.655099 -0.468157 0.139234 0.596606 -3.815984 -8.115766 -0.641838 -1.631479 0.775859 4.549669 1.416602 -72.128567 3.438432 -11.870828 1.311452 0.000000 0.000000 0.000000 -5.483206 -0.777265 0.181048 0.720690 7.874167 5.586310 -2.942791 -1.031202 -0.523983 3.431035 13.297189 76.815354 16.820195 19.689545 -5.067377 0.000000 0.000000 0.000000 
0.105196 117.046280 2.337467 0.000000 0.000000 0.000000 -1.167284 7.841781 -2.553637 -3.606370 11.438688 13.053077 9.456913 -3.745914 -1.164405 -6.825940 0.478401 -6.395287 1.376189 0.098248 -1.582542 0.000000 0.000000 0.000000 -0.942826 8.144323 -2.710864 -5.983901 -4.333290 -0.265528 9.221946 4.464712 -0.652371 0.331876 0.669765 -0.078552 -1.561438 0.394110 0.175950 0.000000 0.000000 0.000000 -0.600799 9.852245 -2.904631 9.074354 -0.197445 1.668479 3.098489 0.251474 -0.528551 0.260370 -2.294927 0.801463 0.000000 0.000000 0.000000 -4.045434 0.053492 0.073243 0.045355 0.467653 0.291218 5.852057 -4.458353 -0.671792 0.000000 0.000000 0.000000 -4.590842 -0.413607 0.085850 0.649550 -3.749270 -7.908711 -0.765829 -1.661853 0.832569 4.398613 1.118048 -72.068536 3.470562 -11.948477 1.236207 0.000000 0.000000 0.000000 -5.407492 -0.700912 0.193581 0.734652 7.589153 5.380739 -2.935984 -1.192084 -0.510159 3.421819 13.806503 76.653178 16.959401 20.419535 -5.643324 0.000000 0.000000 0.000000 
0.768568 116.820358 2.779007 0.000000 0.000000 0.000000 -1.236757 8.081208 -2.548911 -3.433105 11.064701 12.705199 9.658464 -3.511940 -1.304433 -7.317385 0.591845 -6.408994 1.366533 0.083320 -1.482816 0.000000 0.000000 0.000000 -0.773611 8.224116 -2.784867 -5.042005 -4.290523 -0.838157 8.628581 4.653072 -0.660017 -0.701274 1.309481 -0.265469 -1.622559 0.367691 -0.034745 0.000000 0.000000 0.000000 -0.643112 9.432901 -2.763254 8.838247 -0.064730 1.684630 3.157922 0.342649 -0.546966 0.320313 -2.159160 0.765365 0.000000 0.000000 0.000000 -3.901871 0.123137 0.080550 -0.150933 0.569388 0.080435 5.627230 -4.617787 -0.356368 0.000000 0.000000 0.000000 -4.470216 -0.347156 0.049055 0.711740 -3.681645 -7.649598 -0.955898 -1.750374 0.882558 4.267360 0.679204 -72.032835 3.582765 -11.956296 1.121747 0.000000 0.000000 0.000000 -5.233384 -0.607908 0.204984 0.777992 7.360388 5.149982 -2.930290 -1.432052 -0.557700 3.480238 14.229027 76.490537 17.109299 21.261329 -6.530412 0.000000 0.000000 0.000000 
1.488573 116.571648 3.485546 0.000000 0.000000 0.000000 -1.377916 8.177388 -2.550891 -3.143964 10.602072 12.348662 9.811505 -3.126380 -1.468639 -7.911817 0.775487 -6.201539 1.334059 0.078556 -1.367581 0.000000 0.000000 0.000000 -0.740045 8.160931 -2.834267 -3.752844 -4.322489 -1.542154 7.979453 4.857183 -0.545348 -1.985117 1.987529 -0.444107 -1.475123 0.337934 -0.234679 0.000000 0.000000 0.000000 -0.812767 9.143323 -2.655101 8.617220 0.066089 1.726098 3.241820 0.424404 -0.530032 0.389042 -1.970443 0.747105 0.000000 0.000000 0.000000 -3.786305 0.168466 0.125912 -0.374705 0.688336 -0.157456 5.373236 -4.775018 -0.029526 0.000000 0.000000 0.000000 -4.317463 -0.287789 0.048943 0.774293 -3.621821 -7.405024 -1.155794 -1.906248 0.907159 4.165641 0.150111 -72.085646 3.767254 -11.890897 0.991364 0.000000 0.000000 0.000000 -5.001926 -0.528514 0.231291 0.851978 7.227879 4.940546 -2.866388 -1.559923 -0.592549 3.485581 14.461291 76.408684 17.163077 22.018961 -7.579991 0.000000 0.000000 0.000000 
2.184849 116.406113 4.167042 0.000000 0.000000 0.000000 -1.599537 8.072155 -2.526466 -2.669990 10.057760 12.014238 9.933304 -2.627128 -1.572250 -8.560922 1.027260 -5.740870 1.290845 0.091622 -1.245038 0.000000 0.000000 0.000000 -0.968943 7.957888 -2.868705 -2.517860 -4.456403 -2.309807 7.519207 5.049590 -0.281479 -3.051536 2.597374 -0.321908 -1.279152 0.305988 -0.425565 0.000000 0.000000 0.000000 -1.067625 9.004819 -2.642926 8.469991 0.166475 1.794660 3.312542 0.478218 -0.467725 0.507449 -1.643266 0.704922 0.000000 0.000000 0.000000 -3.704555 0.177625 0.209118 -0.565540 0.831951 -0.353749 5.124352 -4.915419 0.287793 0.000000 0.000000 0.000000 -4.166641 -0.248921 0.093314 0.834707 -3.590899 -7.250753 -1.310044 -2.118262 0.931945 4.058372 -0.381793 -72.252200 4.012964 -11.797552 0.861159 0.000000 0.000000 0.000000 -4.759097 -0.476090 0.279378 0.939836 7.220407 4.778186 -2.748846 -1.578878 -0.587278 3.328019 14.423022 76.448504 17.004085 22.483501 -8.613158 0.000000 0.000000 0.000000 
2.869568 116.345123 4.699886 0.000000 0.000000 0.000000 -1.890621 7.713900 -2.529654 -2.010012 9.453408 11.647993 10.120062 -2.136562 -1.552515 -9.174436 1.356899 -5.141956 1.285083 0.119947 -1.121049 0.000000 0.000000 0.000000 -1.385173 7.611678 -2.884242 -1.470261 -4.577193 -3.044933 7.251772 5.218317 0.052350 -3.748202 3.083498 0.328970 -1.377425 0.278111 -0.607359 0.000000 0.000000 0.000000 -1.297448 8.965907 -2.718323 8.445648 0.224983 1.877171 3.318742 0.496840 -0.367056 0.552494 -1.208854 0.703069 0.000000 0.000000 0.000000 -3.670124 0.156609 0.316751 -0.698001 0.990583 -0.450356 4.880314 -5.025551 0.587455 0.000000 0.000000 0.000000 -4.056507 -0.228473 0.181469 0.880127 -3.590493 -7.175791 -1.313061 -2.276922 0.966080 3.903560 -0.837484 -72.493456 4.319171 -11.727684 0.720698 0.000000 0.000000 0.000000 -4.568246 -0.450208 0.346725 1.014746 7.312399 4.688224 -2.569204 -1.548318 -0.490679 2.973928 14.145438 76.585176 16.594932 22.532219 -9.503924 0.000000 0.000000 0.000000 
3.553031 116.363457 5.039383 0.000000 0.000000 0.000000 -2.233900 7.260213 -2.554980 -1.365397 8.914701 11.223818 10.483452 -1.752374 -1.400349 -9.680961 1.753646 -4.584717 1.305231 0.159918 -0.984057 0.000000 0.000000 0.000000 -1.962222 7.201245 -2.876525 -0.763854 -4.522724 -3.596624 7.117159 5.269189 0.353912 -4.318466 3.377198 1.347694 -1.709647 0.269432 -0.772566 0.000000 0.000000 0.000000 -1.512600 8.972714 -2.823931 8.626090 0.246911 1.942815 3.233005 0.489391 -0.243895 0.437518 -0.818813 0.714668 0.000000 0.000000 0.000000 -3.684997 0.130812 0.424074 -0.772726 1.149673 -0.413710 4.605187 -5.054998 0.854350 0.000000 0.000000 0.000000 -4.018623 -0.218479 0.307096 0.901028 -3.619791 -7.159596 -1.249752 -2.422412 0.957480 3.700391 -1.195744 -72.712077 4.689879 -11.685672 0.566812 0.000000 0.000000 0.000000 -4.473320 -0.437773 0.422972 1.060609 7.466862 4.662229 -2.260017 -1.560611 -0.318514 2.492878 13.790972 76.713031 15.963887 22.210045 -10.171892 0.000000 0.000000 0.000000 
4.243369 116.356552 5.308529 0.000000 0.000000 0.000000 -2.558263 6.782511 -2.539011 -0.920269 8.620686 10.662677 11.008745 -1.503444 -1.149638 -10.110662 2.146211 -4.137719 1.337829 0.194120 -0.840266 0.000000 0.000000 0.000000 -2.521686 6.864516 -2.836339 -0.641406 -4.251598 -3.969818 7.387866 4.974671 0.562244 -4.697687 3.411816 2.265546 -2.187706 0.375458 -0.904710 0.000000 0.000000 0.000000 -1.720863 8.974484 -2.897113 9.036675 0.216104 1.938207 3.060383 0.458558 -0.108541 0.238742 -0.578915 0.775838 0.000000 0.000000 0.000000 -3.738948 0.110343 0.521114 -0.830139 1.263997 -0.284639 4.222356 -4.997059 1.075589 0.000000 0.000000 0.000000 -4.053999 -0.210097 0.462775 0.889513 -3.676848 -7.182057 -1.282923 -2.435718 0.898157 3.532664 -1.545719 -72.841399 5.121179 -11.650998 0.383402 0.000000 0.000000 0.000000 -4.471668 -0.436020 0.501204 1.080642 7.603083 4.653973 -1.844735 -1.529820 -0.147042 1.997948 13.483266 76.746587 15.205333 21.742432 -10.580705 0.000000 0.000000 0.000000 
4.961737 116.298538 5.571362 0.000000 0.000000 0.000000 -2.786940 6.354565 -2.436368 -0.715170 8.655860 9.934506 11.618354 -1.396207 -0.872978 -10.602339 2.423250 -3.808540 1.311959 0.217061 -0.684778 0.000000 0.000000 0.000000 -2.917005 6.716518 -2.683600 -1.300154 -3.821877 -4.280763 8.359785 4.302552 0.640085 -4.633415 3.281086 2.891344 -3.025587 0.644656 -0.987017 0.000000 0.000000 0.000000 -1.920303 8.935681 -2.865252 9.666702 0.120779 1.795379 2.825445 0.408248 0.050647 0.075829 -0.540073 0.814213 0.000000 0.000000 0.000000 -3.809161 0.090221 0.622271 -0.904008 1.326456 -0.118304 3.626728 -4.870660 1.244562 0.000000 0.000000 0.000000 -4.138012 -0.208230 0.651057 0.849783 -3.724735 -7.232597 -1.400202 -2.220340 0.725404 3.437501 -2.012171 -72.865995 5.595413 -11.512287 0.150588 0.000000 0.000000 0.000000 -4.538132 -0.457283 0.587927 1.094935 7.646721 4.636660 -1.360532 -1.356573 -0.058872 1.555925 13.300805 76.685204 14.435953 21.378315 -10.721275 0.000000 0.000000 0.000000 
5.654323 116.117897 5.892151 0.000000 0.000000 0.000000 -2.987860 5.936875 -2.145767 -0.741371 8.960693 9.107646 12.364249 -1.474083 -0.622054 -11.209552 2.505204 -3.542281 1.114831 0.239043 -0.496958 0.000000 0.000000 0.000000 -3.097281 6.821612 -2.383511 -2.949730 -3.388295 -4.742254 10.938348 3.455359 0.647693 -3.651675 3.147341 3.265542 -4.644473 1.112846 -0.984917 0.000000 0.000000 0.000000 -2.224696 8.924727 -2.675449 10.475427 -0.080648 1.441037 2.560702 0.329324 0.251600 -0.009756 -0.653425 0.823711 0.000000 0.000000 0.000000 -3.855609 0.048285 0.756145 -1.001065 1.337695 0.064311 2.780201 -4.681988 1.315861 0.000000 0.000000 0.000000 -4.247016 -0.240301 0.870702 0.788839 -3.738861 -7.340233 -1.577704 -1.898506 0.487203 3.425373 -2.645644 -72.829050 6.107806 -11.243677 -0.133125 0.000000 0.000000 0.000000 -4.627471 -0.523321 0.706016 1.134918 7.528345 4.607667 -0.958469 -1.027490 -0.073326 1.219341 13.210850 76.556367 13.727569 21.263943 -10.559452 0.000000 0.000000 0.000000 
6.327777 115.682068 6.244865 0.000000 0.000000 0.000000 -3.145017 5.491213 -1.670325 -0.943109 9.337351 8.154781 13.396408 -1.666277 -0.426693 -12.043961 2.481285 -3.122648 0.838653 0.252619 -0.296647 0.000000 0.000000 0.000000 -3.033554 6.984767 -1.931563 -5.661736 -3.091046 -5.503564 15.367521 2.604345 0.667510 -1.496525 3.196184 3.644135 -7.491262 1.740801 -0.837673 0.000000 0.000000 0.000000 -2.550199 8.945066 -2.318124 11.368999 -0.406323 0.887424 2.294981 0.199102 0.502682 0.081878 -0.861167 0.822746 0.000000 0.000000 0.000000 -3.854095 -0.047869 0.940429 -1.115552 1.307354 0.293361 1.749447 -4.378747 1.239756 0.000000 0.000000 0.000000 -4.343613 -0.337144 1.118043 0.714180 -3.691446 -7.456577 -1.713905 -1.476171 0.239338 3.510924 -3.470820 -72.792434 6.650256 -10.908775 -0.464926 0.000000 0.000000 0.000000 -4.695057 -0.655663 0.876609 1.212558 7.211641 4.588936 -0.707674 -0.547036 -0.136190 1.041136 13.095126 76.409005 13.121083 21.370586 -10.069791 0.000000 0.000000 0.000000 
